<?xml version="1.0" encoding="iso-8859-1"?>
<!-- Generator: Adobe Illustrator 19.0.0, SVG Export Plug-In . SVG Version: 6.00 Build 0)  -->
<svg version="1.1" id="Capa_1" xmlns="http://www.w3.org/2000/svg" xmlns:xlink="http://www.w3.org/1999/xlink" x="0px" y="0px"
	 viewBox="0 0 512 512" style="enable-background:new 0 0 512 512;" xml:space="preserve">
<g>
	<g>
		<path d="M350.796,101.432V84.151V68.943V0h-88.713c-43.158,0-84.053,8.249-112.201,22.631l-10.217,5.22l38.141,32.005l4.976-1.872
			c19.756-7.285,44.974-11.578,71.696-12.265v23.222v15.208v17.281c-37.115,18.29-60.832,56.14-60.832,97.792V512h217.98V199.224
			C411.628,157.571,387.911,119.722,350.796,101.432z M180.827,42.54l-13.372-11.221c25.335-10.308,59.049-16.11,94.628-16.11
			h73.505v53.735h-65.901V30.416h-7.604C232.28,30.416,203.602,34.706,180.827,42.54z M208.855,199.224
			c0-37.29,22.088-71.036,56.272-85.973l4.559-1.992V84.151h25.347v175.398h-86.178V199.224z M396.42,496.792H208.855V274.756
			H396.42V496.792z M396.42,259.549h-86.178V84.151h25.347v27.108l4.559,1.992c34.184,14.937,56.272,48.684,56.272,85.973V259.549z"
			/>
	</g>
</g>
<g>
	<g>
		<path d="M165.277,103.83l-26.885-26.885l-26.884,26.885c-7.181,7.181-11.136,16.729-11.136,26.884
			c0,10.155,3.955,19.703,11.135,26.885c7.181,7.181,16.729,11.135,26.885,11.135c10.156,0,19.703-3.954,26.885-11.135
			c7.18-7.181,11.135-16.729,11.135-26.885C176.412,120.557,172.457,111.011,165.277,103.83z M154.522,146.844
			c-8.893,8.894-23.366,8.894-32.259,0c-4.309-4.309-6.682-10.037-6.682-16.131c0-6.093,2.373-11.822,6.682-16.13l16.13-16.131
			l16.13,16.131h0.001c4.308,4.309,6.681,10.037,6.681,16.13C161.204,136.807,158.83,142.535,154.522,146.844z"/>
	</g>
</g>
<g>
	<g>
		<rect x="295.034" y="356.879" width="15.208" height="15.208"/>
	</g>
</g>
<g>
	<g>
		<rect x="264.618" y="356.879" width="15.208" height="15.208"/>
	</g>
</g>
<g>
	<g>
		<rect x="325.449" y="356.879" width="15.208" height="15.208"/>
	</g>
</g>
<g>
	<g>
		<rect x="249.41" y="407.572" width="15.208" height="15.208"/>
	</g>
</g>
<g>
	<g>
		<rect x="310.242" y="407.572" width="15.208" height="15.208"/>
	</g>
</g>
<g>
	<g>
		<rect x="279.826" y="407.572" width="15.208" height="15.208"/>
	</g>
</g>
<g>
	<g>
		<rect x="340.657" y="407.572" width="15.208" height="15.208"/>
	</g>
</g>
<g>
</g>
<g>
</g>
<g>
</g>
<g>
</g>
<g>
</g>
<g>
</g>
<g>
</g>
<g>
</g>
<g>
</g>
<g>
</g>
<g>
</g>
<g>
</g>
<g>
</g>
<g>
</g>
<g>
</g>
</svg>
