<?xml version="1.0" encoding="iso-8859-1"?>
<!-- Generator: Adobe Illustrator 19.0.0, SVG Export Plug-In . SVG Version: 6.00 Build 0)  -->
<svg version="1.1" id="Capa_1" xmlns="http://www.w3.org/2000/svg" xmlns:xlink="http://www.w3.org/1999/xlink" x="0px" y="0px"
	 viewBox="0 0 512 512" style="enable-background:new 0 0 512 512;" xml:space="preserve">
<g>
	<g>
		<path d="M300.285,244.1v-40.716h-29.819c-4.191-33.85-35.817-57.596-67.696-61.531c0.211-8.018,0.091-11.879-1.863-16.346
			c-8.619-19.7-27.939-22.587-46.624-25.381c-18.468-2.76-37.563-5.614-51.668-23.167l-6.071-7.553l-5.922,7.669
			c-4.069,5.269-24.367,32.339-24.367,47.927c0,7.431,2.363,14.529,6.556,20.212c-15.193,14.537-24.394,35.083-26.063,58.168H20.358
			V244.1H0v198.493h320.643V244.1H300.285z M86.646,153.339h52.313h0.464v-15.269h-0.464H86.76
			c-3.308-3.272-5.235-7.999-5.235-13.066c0-6.212,8.09-20.148,15.838-31.282c16.891,15.859,37.614,18.958,54.664,21.507
			c18.94,2.83,29.9,4.988,34.892,16.398c0.788,1.803,0.746,4.564,0.497,13.025c-0.037,1.248-0.076,2.599-0.116,4.068l-0.208,7.671
			l7.673,0.167c23.598,0.514,55.595,16.976,60.324,46.826H62.029C64.304,175.819,78.563,160.124,86.646,153.339z M35.627,218.653
			h10.822h224.5h14.067v25.448H35.627V218.653z M305.374,427.325H15.269V259.369h5.09h279.927h5.09V427.325z"/>
	</g>
</g>
<g>
	<g>
		<path d="M507.489,381.924l-127.573-196.31c-8.412-12.942-25.784-16.628-38.725-8.219l-32.006,20.801L467.263,441.45l32.007-20.8
			C512.211,412.239,515.898,394.866,507.489,381.924z M490.95,407.847l-19.204,12.481L330.306,202.68l19.205-12.481
			c5.88-3.824,13.78-2.147,17.602,3.736l127.572,196.31C498.508,396.127,496.832,404.023,490.95,407.847z"/>
	</g>
</g>
<g>
	<g>
		<path d="M160.322,284.817c-20.815,0-40.234,11.211-50.677,29.258l13.215,7.649c7.724-13.348,22.079-21.638,37.462-21.638
			s29.738,8.291,37.462,21.638l13.215-7.649C200.556,296.029,181.137,284.817,160.322,284.817z"/>
	</g>
</g>
<g>
	<g>
		<path d="M197.784,364.971c-7.724,13.347-22.079,21.638-37.462,21.638s-29.738-8.291-37.462-21.638l-13.215,7.649
			c10.443,18.047,29.862,29.258,50.677,29.258s40.234-11.211,50.677-29.258L197.784,364.971z"/>
	</g>
</g>
<g>
	<g>
		<rect x="137.419" y="335.709" width="15.269" height="15.269"/>
	</g>
</g>
<g>
	<g>
		<rect x="229.031" y="335.709" width="15.269" height="15.269"/>
	</g>
</g>
<g>
	<g>
		<rect x="106.881" y="335.709" width="15.269" height="15.269"/>
	</g>
</g>
<g>
	<g>
		<rect x="76.344" y="335.709" width="15.269" height="15.269"/>
	</g>
</g>
<g>
	<g>
		<rect x="198.493" y="335.709" width="15.269" height="15.269"/>
	</g>
</g>
<g>
	<g>
		<rect x="167.956" y="335.709" width="15.269" height="15.269"/>
	</g>
</g>
<g>
</g>
<g>
</g>
<g>
</g>
<g>
</g>
<g>
</g>
<g>
</g>
<g>
</g>
<g>
</g>
<g>
</g>
<g>
</g>
<g>
</g>
<g>
</g>
<g>
</g>
<g>
</g>
<g>
</g>
</svg>
